<svg width="21" height="20" viewBox="0 0 21 20" fill="none" xmlns="http://www.w3.org/2000/svg">
<rect width="20.8" height="19.6585" fill="white"/>
<path d="M7.24578 0.646588C5.16754 1.32798 3.37526 2.6213 2.13222 4.33656C0.889168 6.05182 0.260867 8.09862 0.339599 10.1763C0.418332 12.254 1.19995 14.2531 2.56964 15.8799C3.93934 17.5067 5.82491 18.6756 7.94941 19.2147C9.67178 19.6347 11.4763 19.6532 13.2079 19.2684C14.7766 18.9354 16.2268 18.2231 17.4167 17.2012C18.655 16.1052 19.5539 14.7109 20.0167 13.1682C20.5196 11.4905 20.6091 9.72627 20.2783 8.01086H10.6063V11.8028H16.2077C16.0957 12.4076 15.8558 12.9848 15.5023 13.4999C15.1488 14.0151 14.689 14.4575 14.1504 14.8007C13.4664 15.2284 12.6954 15.5161 11.8868 15.6454C11.0758 15.788 10.244 15.788 9.43303 15.6454C8.61109 15.4848 7.83354 15.1642 7.14991 14.704C6.05165 13.9692 5.22701 12.9254 4.79366 11.7214C4.35298 10.4949 4.35298 9.16519 4.79366 7.93868C5.10212 7.07895 5.61206 6.29617 6.28541 5.64876C7.05597 4.89429 8.03152 4.35498 9.10503 4.09002C10.1785 3.82506 11.3085 3.84468 12.371 4.14673C13.201 4.38753 13.96 4.80827 14.5875 5.37539C15.2191 4.78154 15.8496 4.18615 16.479 3.58923C16.804 3.26824 17.1583 2.96261 17.4784 2.63394C16.5206 1.79151 15.3963 1.13599 14.1699 0.704949C11.9367 -0.0614421 9.49312 -0.0820382 7.24578 0.646588Z" fill="white"/>
<path d="M7.24596 0.646602C9.49311 -0.0825194 11.9367 -0.0624655 14.1701 0.703427C15.3967 1.1374 16.5205 1.79607 17.477 2.64164C17.152 2.9703 16.8091 3.27747 16.4776 3.59692C15.8471 4.19179 15.2171 4.78462 14.5877 5.3754C13.9602 4.80828 13.2012 4.38755 12.3712 4.14674C11.3091 3.84363 10.1791 3.82288 9.10532 4.08676C8.03152 4.35063 7.05537 4.88895 6.28396 5.64263C5.61061 6.29004 5.10068 7.07282 4.79221 7.93255L1.42358 5.46755C2.62935 3.20768 4.71705 1.47905 7.24596 0.646602Z" fill="#E33629"/>
<path d="M0.529865 7.90949C0.710924 7.0614 1.01152 6.24009 1.42361 5.46753L4.79224 7.93867C4.35156 9.16519 4.35156 10.4949 4.79224 11.7214C3.66991 12.5405 2.54703 13.3637 1.42361 14.191C0.391984 12.2502 0.0773551 10.0389 0.529865 7.90949Z" fill="#F8BD00"/>
<path d="M10.6064 8.00934H20.2784C20.6093 9.72475 20.5198 11.489 20.0168 13.1666C19.5541 14.7093 18.6552 16.1037 17.4168 17.1997C16.3297 16.398 15.2377 15.6024 14.1506 14.8007C14.6895 14.4572 15.1496 14.0142 15.5031 13.4986C15.8566 12.9829 16.0963 12.4051 16.2078 11.7998H10.6064C10.6048 10.5373 10.6064 9.27332 10.6064 8.00934Z" fill="#587DBD"/>
<path d="M1.42188 14.191C2.54529 13.3719 3.66817 12.5487 4.7905 11.7214C5.22471 12.9258 6.05053 13.9697 7.15 14.7039C7.83576 15.162 8.61499 15.48 9.438 15.6377C10.249 15.7802 11.0808 15.7802 11.8917 15.6377C12.7003 15.5084 13.4714 15.2206 14.1554 14.793C15.2425 15.5947 16.3345 16.3903 17.4216 17.192C16.2319 18.2144 14.7817 18.9273 13.2129 19.2607C11.4813 19.6455 9.67675 19.627 7.95437 19.207C6.59214 18.8632 5.31972 18.2572 4.21688 17.427C3.04957 16.5511 2.09618 15.4472 1.42188 14.191Z" fill="#319F43"/>
</svg>
