<svg width="65" height="65" viewBox="0 0 65 65" fill="none" xmlns="http://www.w3.org/2000/svg">
<path fill-rule="evenodd" clip-rule="evenodd" d="M32.5 10.8334C28.7104 10.8327 24.9869 11.8259 21.7011 13.714C18.4153 15.6021 15.6822 18.319 13.7746 21.5934C11.867 24.8679 10.8516 28.5854 10.8297 32.375C10.8078 36.1645 11.7803 39.8935 13.65 43.1898C14.9137 41.5474 16.5382 40.2176 18.3979 39.3033C20.2576 38.3889 22.3027 37.9145 24.375 37.9167H40.625C42.6973 37.9145 44.7424 38.3889 46.602 39.3033C48.4617 40.2176 50.0862 41.5474 51.35 43.1898C53.2197 39.8935 54.1921 36.1645 54.1703 32.375C54.1484 28.5854 53.133 24.8679 51.2254 21.5934C49.3177 18.319 46.5847 15.6021 43.2989 13.714C40.0131 11.8259 36.2896 10.8327 32.5 10.8334ZM54.0123 48.9559C54.3517 48.5135 54.6767 48.0603 54.9873 47.5963C57.9898 43.1348 59.5903 37.8777 59.5833 32.5C59.5833 17.5419 47.4581 5.41669 32.5 5.41669C17.5419 5.41669 5.41665 17.5419 5.41665 32.5C5.40812 38.4496 7.36676 44.235 10.9877 48.9559L10.9742 49.0046L11.9356 50.1231C14.4757 53.0929 17.6296 55.4765 21.1798 57.1097C24.73 58.7429 28.5921 59.5868 32.5 59.5834C33.085 59.5834 33.6664 59.5653 34.2442 59.5292C39.1311 59.221 43.8416 57.5872 47.8698 54.8031C49.7962 53.4741 51.5423 51.901 53.0644 50.1231L54.0258 49.0046L54.0123 48.9559ZM32.5 16.25C30.3451 16.25 28.2785 17.106 26.7547 18.6298C25.231 20.1535 24.375 22.2201 24.375 24.375C24.375 26.5299 25.231 28.5965 26.7547 30.1203C28.2785 31.644 30.3451 32.5 32.5 32.5C34.6549 32.5 36.7215 31.644 38.2452 30.1203C39.769 28.5965 40.625 26.5299 40.625 24.375C40.625 22.2201 39.769 20.1535 38.2452 18.6298C36.7215 17.106 34.6549 16.25 32.5 16.25Z" fill="#DBDBDB"/>
</svg>
