<svg width="112" height="112" viewBox="0 0 112 112" fill="none" xmlns="http://www.w3.org/2000/svg">
<g filter="url(#filter0_d_802_1710)">
<path d="M55.6 7.60084H11.6001V95.6001H99.6001V51.6V7.60084H55.6Z" fill="white"/>
<path d="M17.8879 13.8887H11.6001V7.60058H17.8879V13.8887Z" fill="#86D6C9"/>
<path d="M27.3151 20.1756V17.0318H24.171V13.888H17.8872V20.1714H21.0315V23.3157H24.1748V26.459H30.4585V20.1756H27.3151Z" fill="#ED816F"/>
<path d="M11.6023 26.459H14.7438V20.1737H11.6023V26.459Z" fill="#ED816F"/>
<path d="M24.1733 7.60027V10.7417H30.4586V7.60027H24.1733Z" fill="#ED816F"/>
<path d="M33.6011 42.1724H39.8865V35.8871H33.6011V42.1724Z" fill="#213745"/>
<path d="M39.8865 35.8867H46.1716V29.6015H39.8865V35.8867Z" fill="#213745"/>
<path d="M36.7437 32.7441H33.6011V29.6017H36.7437V32.7441Z" fill="#ED816F"/>
<path d="M21.0283 39.0303H30.4584V29.6003H21.0283V39.0303Z" fill="#86D6C9"/>
<path d="M27.3158 35.8867H24.1733V32.7439H27.3158V35.8867Z" fill="white"/>
<path d="M33.5984 26.4604H43.0289V17.03H33.5984V26.4604Z" fill="#86D6C9"/>
<path d="M39.8858 23.3169H36.7432V20.174H39.8858V23.3169Z" fill="white"/>
<path d="M17.8878 45.3149H11.6023V39.0297H17.8878V45.3149Z" fill="#213745"/>
<path d="M27.3169 45.3159H24.1733V42.1726H27.3169V45.3159Z" fill="#ED816F"/>
<path d="M36.7444 10.7456H33.6008V7.60227H36.7444V10.7456Z" fill="#ED816F"/>
<path d="M39.8854 48.458H36.7417V45.3147H39.8854V48.458Z" fill="#ED816F"/>
<path d="M52.4581 35.8872H49.3142V32.7434H52.4581V35.8872Z" fill="#ED816F"/>
<path d="M49.3131 23.3154H46.1716V20.174H49.3131V23.3154Z" fill="#ED816F"/>
<path d="M43.0288 13.8882H49.3165V7.60055H43.0288V13.8882Z" fill="#213745"/>
<path d="M93.3123 13.8887H99.5999V7.60058H93.3123V13.8887Z" fill="#86D6C9"/>
<path d="M93.3128 13.888H87.0289V17.0318H83.8851V20.1756H80.7417V26.459H87.0251V23.3157H90.1685V20.1714H93.3128V13.888Z" fill="#ED816F"/>
<path d="M99.5975 26.459H96.4561V20.1737H99.5975V26.459Z" fill="#ED816F"/>
<path d="M87.027 7.60027V10.7417H80.7412V7.60027H87.027Z" fill="#ED816F"/>
<path d="M77.5988 42.1724H71.3135V35.8871H77.5988V42.1724Z" fill="#213745"/>
<path d="M71.3134 35.8867H65.0281V29.6015H71.3134V35.8867Z" fill="#213745"/>
<path d="M74.4558 32.7441H77.5987V29.6017H74.4558V32.7441Z" fill="#ED816F"/>
<path d="M90.1718 39.0303H80.7412V29.6003H90.1718V39.0303Z" fill="#86D6C9"/>
<path d="M83.884 35.8867H87.0269V32.7439H83.884V35.8867Z" fill="white"/>
<path d="M77.601 26.4604H68.1714V17.03H77.601V26.4604Z" fill="#86D6C9"/>
<path d="M71.314 23.3169H74.4569V20.174H71.314V23.3169Z" fill="white"/>
<path d="M93.3123 45.3149H99.5976V39.0297H93.3123V45.3149Z" fill="#213745"/>
<path d="M83.8831 45.3159H87.0269V42.1726H83.8831V45.3159Z" fill="#ED816F"/>
<path d="M74.4558 10.7456H77.5992V7.60227H74.4558V10.7456Z" fill="#ED816F"/>
<path d="M71.3142 48.458H74.4581V45.3147H71.3142V48.458Z" fill="#ED816F"/>
<path d="M58.7424 35.8872H61.8858V32.7434H58.7424V35.8872Z" fill="#ED816F"/>
<path d="M61.8867 23.3154H65.0282V20.174H61.8867V23.3154Z" fill="#ED816F"/>
<path d="M55.5999 17.0318H52.4575V26.459H58.7428V17.0318H55.5999Z" fill="#ED816F"/>
<path d="M68.1715 13.8882H61.8833V7.60055H68.1715V13.8882Z" fill="#213745"/>
<path d="M17.8879 89.3115H11.6001V95.6001H17.8879V89.3115Z" fill="#86D6C9"/>
<path d="M30.4585 76.742H24.1748V79.8853H21.0315V83.0291H17.8872V89.3125H24.171V86.1687H27.3151V83.0253H30.4585V76.742Z" fill="#ED816F"/>
<path d="M11.6023 76.7416H14.7438V83.0269H11.6023V76.7416Z" fill="#ED816F"/>
<path d="M24.1733 95.6001V92.4587H30.4586V95.6001H24.1733Z" fill="#ED816F"/>
<path d="M33.6011 61.0282H39.8865V67.314H33.6011V61.0282Z" fill="#213745"/>
<path d="M39.8865 67.3134H46.1716V73.5986H39.8865V67.3134Z" fill="#213745"/>
<path d="M36.7437 70.4558H33.6011V73.5986H36.7437V70.4558Z" fill="#ED816F"/>
<path d="M21.0283 64.1701H30.4584V73.6001H21.0283V64.1701Z" fill="#86D6C9"/>
<path d="M27.3158 67.3137H24.1733V70.4561H27.3158V67.3137Z" fill="white"/>
<path d="M33.5984 76.7399H43.0289V86.1699H33.5984V76.7399Z" fill="#86D6C9"/>
<path d="M39.8858 79.883H36.7432V83.0259H39.8858V79.883Z" fill="white"/>
<path d="M17.8878 57.8856H11.6023V64.1709H17.8878V57.8856Z" fill="#213745"/>
<path d="M21.0315 48.4574V54.7427H30.4586V48.4574H21.0315Z" fill="#ED816F"/>
<path d="M27.3169 57.885H24.1733V61.0283H27.3169V57.885Z" fill="#ED816F"/>
<path d="M36.7444 92.4543H33.6008V95.5977H36.7444V92.4543Z" fill="#ED816F"/>
<path d="M39.8854 54.7419H36.7417V57.8857H39.8854V54.7419Z" fill="#ED816F"/>
<path d="M52.4581 67.3132H49.3142V70.4565H52.4581V67.3132Z" fill="#ED816F"/>
<path d="M49.3131 79.8849H46.1716V83.0259H49.3131V79.8849Z" fill="#ED816F"/>
<path d="M43.0288 89.312H49.3165V95.6001H43.0288V89.312Z" fill="#213745"/>
<path d="M14.7451 48.4574V54.7427H17.8879V48.4574H14.7451Z" fill="#ED816F"/>
<path d="M93.3123 89.3115H99.5999V95.6001H93.3123V89.3115Z" fill="#86D6C9"/>
<path d="M90.1685 83.0291V79.8853H87.0251V76.742H80.7417V83.0253H83.8851V86.1687H87.0289V89.3125H93.3128V83.0291H90.1685Z" fill="#ED816F"/>
<path d="M99.5975 76.7416H96.4561V83.0269H99.5975V76.7416Z" fill="#ED816F"/>
<path d="M87.027 95.6001V92.4587H80.7412V95.6001H87.027Z" fill="#ED816F"/>
<path d="M77.5988 61.0282H71.3135V67.314H77.5988V61.0282Z" fill="#213745"/>
<path d="M71.3134 67.3134H65.0281V73.5986H71.3134V67.3134Z" fill="#213745"/>
<path d="M74.4558 70.4558H77.5987V73.5986H74.4558V70.4558Z" fill="#ED816F"/>
<path d="M90.1718 64.1701H80.7412V73.6001H90.1718V64.1701Z" fill="#86D6C9"/>
<path d="M83.884 67.3137H87.0269V70.4561H83.884V67.3137Z" fill="white"/>
<path d="M77.601 76.7399H68.1714V86.1699H77.601V76.7399Z" fill="#86D6C9"/>
<path d="M71.314 79.883H74.4569V83.0259H71.314V79.883Z" fill="white"/>
<path d="M93.3123 57.8856H99.5976V64.1709H93.3123V57.8856Z" fill="#213745"/>
<path d="M80.7412 48.4574V54.7427H90.1685V48.4574H80.7412Z" fill="#ED816F"/>
<path d="M83.8831 57.885H87.0269V61.0283H83.8831V57.885Z" fill="#ED816F"/>
<path d="M74.4558 92.4543H77.5992V95.5977H74.4558V92.4543Z" fill="#ED816F"/>
<path d="M71.3142 54.7419H74.4581V57.8857H71.3142V54.7419Z" fill="#ED816F"/>
<path d="M58.7424 67.3132H61.8858V70.4565H58.7424V67.3132Z" fill="#ED816F"/>
<path d="M61.8867 79.8849H65.0282V83.0259H61.8867V79.8849Z" fill="#ED816F"/>
<path d="M55.5999 76.7413H52.4575V86.1685H58.7428V76.7413H55.5999Z" fill="#ED816F"/>
<path d="M68.1715 89.312H61.8833V95.6001H68.1715V89.312Z" fill="#213745"/>
<path d="M93.3123 48.4574V54.7427H96.4551V48.4574H93.3123Z" fill="#ED816F"/>
<path d="M57.9303 51.4517L53.7192 53.858V49.0454L57.9303 51.4517Z" fill="black" stroke="black" stroke-width="2" stroke-linecap="round" stroke-linejoin="round"/>
<path d="M43.4924 52.3025V50.5999C43.4924 47.1163 43.4924 45.3745 44.5819 44.2538C45.6714 43.1331 47.3866 43.0846 50.817 42.9876C52.4425 42.9416 54.1029 42.9087 55.5241 42.9087C56.9453 42.9087 58.6058 42.9416 60.2313 42.9876C63.6616 43.0846 65.3769 43.1331 66.4663 44.2538C67.5558 45.3745 67.5558 47.1163 67.5558 50.5999V52.3025C67.5558 55.786 67.5558 57.5278 66.4663 58.6484C65.3769 59.7691 63.6618 59.8176 60.2314 59.9147C58.6058 59.9607 56.9453 59.9936 55.5241 59.9936C54.1029 59.9936 52.4424 59.9607 50.8168 59.9147C47.3865 59.8176 45.6713 59.7691 44.5819 58.6484C43.4924 57.5278 43.4924 55.786 43.4924 52.3025Z" stroke="black" stroke-width="2"/>
</g>
<defs>
<filter id="filter0_d_802_1710" x="9.72748e-05" y="9.72748e-05" width="111.2" height="111.2" filterUnits="userSpaceOnUse" color-interpolation-filters="sRGB">
<feFlood flood-opacity="0" result="BackgroundImageFix"/>
<feColorMatrix in="SourceAlpha" type="matrix" values="0 0 0 0 0 0 0 0 0 0 0 0 0 0 0 0 0 0 127 0" result="hardAlpha"/>
<feOffset dy="4"/>
<feGaussianBlur stdDeviation="5.8"/>
<feComposite in2="hardAlpha" operator="out"/>
<feColorMatrix type="matrix" values="0 0 0 0 0 0 0 0 0 0 0 0 0 0 0 0 0 0 0.25 0"/>
<feBlend mode="normal" in2="BackgroundImageFix" result="effect1_dropShadow_802_1710"/>
<feBlend mode="normal" in="SourceGraphic" in2="effect1_dropShadow_802_1710" result="shape"/>
</filter>
</defs>
</svg>
