<svg width="112" height="112" viewBox="0 0 112 112" fill="none" xmlns="http://www.w3.org/2000/svg">
<g filter="url(#filter0_d_802_1794)">
<path d="M55.6 7.60013H11.6001V95.6001H99.6001V51.5996V7.60013H55.6Z" fill="#3A72B7"/>
<path d="M65.0281 51.5989V45.315H68.1706V39.0292H61.8852V42.1721H55.6014H55.5985H49.3146V39.0292H43.0293V45.315H46.1717V51.5989V51.6012V57.8856H43.0293V64.1709H49.3146V61.0285H55.5985H55.6014H61.8852V64.1709H68.1706V57.8856H65.0281V51.6012V51.5989Z" fill="#F46B88"/>
<path d="M27.3158 23.3159H14.7451V10.7453H27.3158V23.3159Z" fill="#EACEAA"/>
<path d="M33.8951 35.8867H33.3074C29.9983 35.8867 27.3157 33.2044 27.3157 29.8952V29.3072C27.3157 25.9984 29.9983 23.3161 33.3074 23.3161H33.8951C37.2039 23.3161 39.8865 25.9984 39.8865 29.3072V29.8952C39.8865 33.2039 37.2039 35.8867 33.8951 35.8867Z" fill="#A5DFB8"/>
<path d="M36.7438 17.0303H30.4585V10.7454H36.7438V17.0303Z" fill="#F46B88"/>
<path d="M21.0305 32.7441H14.7451V26.4588H21.0305V32.7441Z" fill="#F46B88"/>
<path d="M17.8878 13.8877H11.6023V7.60287H17.8878V13.8877Z" fill="#F46B88"/>
<path d="M24.1731 20.1733H17.8877V13.8876H24.1731V20.1733Z" fill="#F46B88"/>
<path d="M43.0292 17.0303H39.8865V13.8874H43.0292V17.0303Z" fill="#A5DFB8"/>
<path d="M27.3155 23.3159H24.1731V20.173H27.3155V23.3159Z" fill="#F46B88"/>
<path d="M43.0292 39.0293H39.8865V35.8869H43.0292V39.0293Z" fill="#F46B88"/>
<path d="M43.0292 48.457H39.8865V45.3146H43.0292V48.457Z" fill="#F46B88"/>
<path d="M21.0306 18.6021C20.1627 18.6021 19.4592 17.8979 19.4592 17.0304C19.4594 16.1623 20.1627 15.4592 21.0306 15.4592C21.8983 15.4592 22.602 16.1628 22.602 17.0304C22.602 17.8984 21.8983 18.6021 21.0306 18.6021Z" fill="#3A72B7"/>
<path d="M52.4576 39.0293H49.3147V35.8869H52.4576V39.0293Z" fill="#F46B88"/>
<path d="M21.0303 42.1738H17.8877V39.0309H21.0303V42.1738Z" fill="#EACEAA"/>
<path d="M11.8961 10.7427H11.6023V7.60026H14.745V7.89403C14.745 9.46713 13.4695 10.7427 11.8961 10.7427Z" fill="#EACEAA"/>
<path d="M43.0291 32.7441H24.1731V26.4588H43.0291V32.7441Z" fill="#A5DFB8"/>
<path d="M30.4585 39.0293V20.1734H36.7438V39.0293H30.4585Z" fill="#A5DFB8"/>
<path d="M33.6012 32.7441C31.8656 32.7441 30.4585 31.3373 30.4585 29.6017C30.4585 27.8656 31.8656 26.4588 33.6012 26.4588C35.3369 26.4588 36.7438 27.8656 36.7438 29.6017C36.7438 31.3373 35.3369 32.7441 33.6012 32.7441Z" fill="#F46B88"/>
<path d="M14.745 48.457H11.6023V35.8864H14.745V48.457Z" fill="#A5DFB8"/>
<path d="M39.8865 10.7427V7.60026H52.4574V10.7427H39.8865Z" fill="#A5DFB8"/>
<path d="M27.3155 42.1719H24.1731V35.8866H27.3155V42.1719Z" fill="#EACEAA"/>
<path d="M49.315 23.3159H46.1721V17.0301H49.315V23.3159Z" fill="#EACEAA"/>
<path d="M39.8865 23.3159V20.173H46.1716V23.3159H39.8865Z" fill="#EACEAA"/>
<path d="M46.1716 17.0303V13.8874H52.4574V17.0303H46.1716Z" fill="#EACEAA"/>
<path d="M33.6 31.1714H33.5998C32.7321 31.1714 32.0286 30.4682 32.0286 29.6007V29.6002C32.0286 28.7326 32.7321 28.029 33.5998 28.029H33.6C34.4679 28.029 35.1714 28.7326 35.1714 29.6007C35.1714 30.4682 34.4679 31.1714 33.6 31.1714Z" fill="#3A72B7"/>
<path d="M83.884 23.3159H96.4551V10.7453H83.884V23.3159Z" fill="#EACEAA"/>
<path d="M77.305 35.8867H77.8926C81.2018 35.8867 83.8841 33.2039 83.8841 29.8952V29.3072C83.8841 25.9984 81.2018 23.3161 77.8926 23.3161H77.305C73.9958 23.3161 71.3135 25.9984 71.3135 29.3072V29.8952C71.3135 33.2039 73.9958 35.8867 77.305 35.8867Z" fill="#A5DFB8"/>
<path d="M74.4558 17.0303H80.7411V10.7454H74.4558V17.0303Z" fill="#F46B88"/>
<path d="M90.1694 32.7441H96.4552V26.4588H90.1694V32.7441Z" fill="#F46B88"/>
<path d="M93.3123 13.8877H99.5976V7.60287H93.3123V13.8877Z" fill="#F46B88"/>
<path d="M87.0271 20.1733H93.3124V13.8876H87.0271V20.1733Z" fill="#F46B88"/>
<path d="M68.1707 17.0303H71.3136V13.8874H68.1707V17.0303Z" fill="#A5DFB8"/>
<path d="M83.884 23.3159H87.0269V20.173H83.884V23.3159Z" fill="#F46B88"/>
<path d="M68.1707 39.0293H71.3136V35.8869H68.1707V39.0293Z" fill="#F46B88"/>
<path d="M68.1707 48.457H71.3136V45.3146H68.1707V48.457Z" fill="#F46B88"/>
<path d="M90.1694 18.6021C91.0374 18.6021 91.741 17.8984 91.741 17.0304C91.741 16.1628 91.0374 15.4592 90.1694 15.4592C89.3018 15.4592 88.5981 16.1628 88.5981 17.0304C88.5981 17.8984 89.3018 18.6021 90.1694 18.6021Z" fill="#3A72B7"/>
<path d="M58.7429 39.0293H61.8853V35.8869H58.7429V39.0293Z" fill="#F46B88"/>
<path d="M90.1694 42.1738H93.3123V39.0309H90.1694V42.1738Z" fill="#EACEAA"/>
<path d="M99.304 10.7427H99.5977V7.60026H96.4553V7.89403C96.4553 9.46713 97.7304 10.7427 99.304 10.7427Z" fill="#EACEAA"/>
<path d="M68.1707 32.7441H87.0271V26.4588H68.1707V32.7441Z" fill="#A5DFB8"/>
<path d="M80.7411 39.0293V20.1734H74.4558V39.0293H80.7411Z" fill="#A5DFB8"/>
<path d="M77.5987 32.7441C79.3343 32.7441 80.7411 31.3373 80.7411 29.6017C80.7411 27.8656 79.3343 26.4588 77.5987 26.4588C75.8631 26.4588 74.4558 27.8656 74.4558 29.6017C74.4558 31.3373 75.8631 32.7441 77.5987 32.7441Z" fill="#F46B88"/>
<path d="M96.4553 48.457H99.5977V35.8864H96.4553V48.457Z" fill="#A5DFB8"/>
<path d="M71.3136 10.7427V7.60026H58.7429V10.7427H71.3136Z" fill="#A5DFB8"/>
<path d="M83.884 42.1719H87.0269V35.8866H83.884V42.1719Z" fill="#EACEAA"/>
<path d="M61.8853 23.3159H65.0277V17.0301H61.8853V23.3159Z" fill="#EACEAA"/>
<path d="M71.3134 23.3159V20.173H65.0281V23.3159H71.3134Z" fill="#EACEAA"/>
<path d="M65.0282 17.0303V13.8874H58.7429V17.0303H65.0282Z" fill="#EACEAA"/>
<path d="M77.6003 31.1714C78.4678 31.1714 79.1715 30.4682 79.1715 29.6007V29.6002C79.1715 28.7326 78.4678 28.029 77.6003 28.029C76.7322 28.029 76.0291 28.7326 76.0291 29.6002V29.6007C76.0291 30.4682 76.7322 31.1714 77.6003 31.1714Z" fill="#3A72B7"/>
<path d="M27.3158 79.8844H14.7451V92.4551H27.3158V79.8844Z" fill="#EACEAA"/>
<path d="M33.8951 67.3132H33.3074C29.9983 67.3132 27.3157 69.996 27.3157 73.3052V73.8927C27.3157 77.202 29.9983 79.8843 33.3074 79.8843H33.8951C37.2039 79.8843 39.8865 77.202 39.8865 73.8927V73.3052C39.8865 69.996 37.2039 67.3132 33.8951 67.3132Z" fill="#A5DFB8"/>
<path d="M36.7438 86.1697H30.4585V92.4551H36.7438V86.1697Z" fill="#F46B88"/>
<path d="M21.0305 70.4559H14.7451V76.7412H21.0305V70.4559Z" fill="#F46B88"/>
<path d="M17.8878 89.3119H11.6023V95.5977H17.8878V89.3119Z" fill="#F46B88"/>
<path d="M24.1731 83.0268H17.8877V89.312H24.1731V83.0268Z" fill="#F46B88"/>
<path d="M43.0292 86.1696H39.8865V89.312H43.0292V86.1696Z" fill="#A5DFB8"/>
<path d="M27.3155 79.8839H24.1731V83.0264H27.3155V79.8839Z" fill="#F46B88"/>
<path d="M43.0292 64.1706H39.8865V67.313H43.0292V64.1706Z" fill="#F46B88"/>
<path d="M43.0292 54.7428H39.8865V57.8857H43.0292V54.7428Z" fill="#F46B88"/>
<path d="M21.0306 84.5983C20.1627 84.5983 19.4592 85.3014 19.4592 86.1695C19.4592 87.0372 20.1627 87.7407 21.0306 87.7407C21.8983 87.7407 22.602 87.0372 22.602 86.1695V86.1691C22.602 85.3014 21.8983 84.5983 21.0306 84.5983Z" fill="#3A72B7"/>
<path d="M52.4576 64.1706H49.3147V67.313H52.4576V64.1706Z" fill="#F46B88"/>
<path d="M21.0303 61.027H17.8877V64.1699H21.0303V61.027Z" fill="#EACEAA"/>
<path d="M11.8961 92.4571H11.6023V95.6001H14.745V95.3058C14.745 93.7327 13.4695 92.4571 11.8961 92.4571Z" fill="#EACEAA"/>
<path d="M43.0291 70.4559H24.1731V76.7412H43.0291V70.4559Z" fill="#A5DFB8"/>
<path d="M30.4585 64.1704V83.0264H36.7438V64.1704H30.4585Z" fill="#A5DFB8"/>
<path d="M33.6012 70.4559C31.8656 70.4559 30.4585 71.8632 30.4585 73.5988C30.4585 75.3344 31.8656 76.7412 33.6012 76.7412C35.3369 76.7412 36.7438 75.3344 36.7438 73.5988C36.7438 71.8632 35.3369 70.4559 33.6012 70.4559Z" fill="#F46B88"/>
<path d="M14.745 54.7424H11.6023V67.313H14.745V54.7424Z" fill="#A5DFB8"/>
<path d="M39.8865 92.4571V95.6001H52.4574V92.4571H39.8865Z" fill="#A5DFB8"/>
<path d="M24.1731 45.3151H24.1727C20.7018 45.3151 17.8877 48.1287 17.8877 51.6V51.6004C17.8877 55.0712 20.7018 57.8857 24.1727 57.8857H24.1731C27.6445 57.8857 30.4583 55.0712 30.4583 51.6004V51.6C30.4583 48.1287 27.6445 45.3151 24.1731 45.3151Z" fill="#A5DFB8"/>
<path d="M27.3155 61.0282H24.1731V67.313H27.3155V61.0282Z" fill="#EACEAA"/>
<path d="M49.315 79.8842H46.1721V86.1694H49.315V79.8842Z" fill="#EACEAA"/>
<path d="M39.8865 79.8839V83.0264H46.1716V79.8839H39.8865Z" fill="#EACEAA"/>
<path d="M46.1716 86.1696V89.312H52.4574V86.1696H46.1716Z" fill="#EACEAA"/>
<path d="M24.1782 48.4602H24.168C22.4353 48.4602 21.0305 49.865 21.0305 51.5978V51.603C21.0305 53.3358 22.4353 54.7407 24.168 54.7407H24.1783C25.9111 54.7407 27.3157 53.3358 27.3157 51.603V51.5978C27.3157 49.865 25.9111 48.4602 24.1782 48.4602Z" fill="#F46B88"/>
<path d="M33.6 72.029H33.5998C32.7321 72.029 32.0286 72.7326 32.0286 73.6002C32.0286 74.4682 32.7321 75.1714 33.5998 75.1714H33.6C34.4679 75.1714 35.1714 74.4682 35.1714 73.6002C35.1714 72.7326 34.4679 72.029 33.6 72.029Z" fill="#3A72B7"/>
<path d="M83.884 79.8844H96.4551V92.4551H83.884V79.8844Z" fill="#EACEAA"/>
<path d="M77.305 67.3132H77.8926C81.2018 67.3132 83.8841 69.996 83.8841 73.3052V73.8927C83.8841 77.202 81.2018 79.8843 77.8926 79.8843H77.305C73.9958 79.8843 71.3135 77.202 71.3135 73.8927V73.3052C71.3135 69.996 73.9958 67.3132 77.305 67.3132Z" fill="#A5DFB8"/>
<path d="M74.4558 86.1697H80.7411V92.4551H74.4558V86.1697Z" fill="#F46B88"/>
<path d="M90.1694 70.4559H96.4552V76.7412H90.1694V70.4559Z" fill="#F46B88"/>
<path d="M93.3123 89.3119H99.5976V95.5977H93.3123V89.3119Z" fill="#F46B88"/>
<path d="M87.0271 83.0268H93.3124V89.312H87.0271V83.0268Z" fill="#F46B88"/>
<path d="M68.1707 86.1696H71.3136V89.312H68.1707V86.1696Z" fill="#A5DFB8"/>
<path d="M83.884 79.8839H87.0269V83.0264H83.884V79.8839Z" fill="#F46B88"/>
<path d="M68.1707 64.1706H71.3136V67.313H68.1707V64.1706Z" fill="#F46B88"/>
<path d="M68.1707 54.7428H71.3136V57.8857H68.1707V54.7428Z" fill="#F46B88"/>
<path d="M90.1694 84.5983C91.0374 84.5983 91.741 85.3014 91.741 86.1695C91.741 87.0372 91.0374 87.7407 90.1694 87.7407C89.3018 87.7407 88.5981 87.0372 88.5981 86.1695V86.1691C88.5981 85.3014 89.3018 84.5983 90.1694 84.5983Z" fill="#3A72B7"/>
<path d="M58.7429 64.1706H61.8853V67.313H58.7429V64.1706Z" fill="#F46B88"/>
<path d="M90.1694 61.027H93.3123V64.1699H90.1694V61.027Z" fill="#EACEAA"/>
<path d="M99.304 92.4571H99.5977V95.6001H96.4553V95.3058C96.4553 93.7327 97.7304 92.4571 99.304 92.4571Z" fill="#EACEAA"/>
<path d="M46.1716 29.6017V32.7441H65.0281V29.6017H55.5999H46.1716Z" fill="#A5DFB8"/>
<path d="M33.6011 51.6V57.8857H36.7437V45.3151H33.6011V51.6Z" fill="#A5DFB8"/>
<path d="M74.4558 45.3151V57.8857H77.5987V45.3151H74.4558Z" fill="#A5DFB8"/>
<path d="M55.6004 26.4585H58.7419V17.0303H52.458V26.4585H55.5995H55.6004Z" fill="#A5DFB8"/>
<path d="M55.5999 70.4562H46.1716V73.5991H65.0281V70.4562H55.5999Z" fill="#A5DFB8"/>
<path d="M55.5995 76.7413H52.458V86.1694H58.7419V76.7413H55.6004H55.5995Z" fill="#A5DFB8"/>
<path d="M68.1707 70.4559H87.0271V76.7412H68.1707V70.4559Z" fill="#A5DFB8"/>
<path d="M80.7411 64.1704V83.0264H74.4558V64.1704H80.7411Z" fill="#A5DFB8"/>
<path d="M77.5987 70.4559C79.3343 70.4559 80.7411 71.8632 80.7411 73.5988C80.7411 75.3344 79.3343 76.7412 77.5987 76.7412C75.8631 76.7412 74.4558 75.3344 74.4558 73.5988C74.4558 71.8632 75.8631 70.4559 77.5987 70.4559Z" fill="#F46B88"/>
<path d="M96.4553 54.7424H99.5977V67.313H96.4553V54.7424Z" fill="#A5DFB8"/>
<path d="M71.3136 92.4571V95.6001H58.7429V92.4571H71.3136Z" fill="#A5DFB8"/>
<path d="M87.027 45.3151C83.5553 45.3151 80.7417 48.1287 80.7417 51.6V51.6004C80.7417 55.0712 83.5553 57.8857 87.027 57.8857C90.4983 57.8857 93.3123 55.0712 93.3123 51.6C93.3123 48.1287 90.4983 45.3151 87.027 45.3151Z" fill="#A5DFB8"/>
<path d="M83.884 61.0282H87.0269V67.313H83.884V61.0282Z" fill="#EACEAA"/>
<path d="M61.8853 79.8842H65.0277V86.1694H61.8853V79.8842Z" fill="#EACEAA"/>
<path d="M71.3134 79.8839V83.0264H65.0281V79.8839H71.3134Z" fill="#EACEAA"/>
<path d="M65.0282 86.1696V89.312H58.7429V86.1696H65.0282Z" fill="#EACEAA"/>
<path d="M87.0317 48.4602H87.0217C85.2889 48.4602 83.884 49.865 83.884 51.5978V51.603C83.884 53.3358 85.2889 54.7407 87.0217 54.7407H87.0317C88.7649 54.7407 90.1694 53.3358 90.1694 51.603V51.5978C90.1694 49.865 88.7649 48.4602 87.0317 48.4602Z" fill="#F46B88"/>
<path d="M77.6003 72.029C78.4678 72.029 79.1715 72.7326 79.1715 73.6002C79.1715 74.4682 78.4678 75.1714 77.6003 75.1714C76.7322 75.1714 76.0291 74.4682 76.0291 73.6002C76.0291 72.7326 76.7322 72.029 77.6003 72.029Z" fill="#3A72B7"/>
<path d="M55.452 55.2491C57.5488 55.2491 59.2487 53.5493 59.2487 51.4524C59.2487 49.3556 57.5488 47.6558 55.452 47.6558C53.3551 47.6558 51.6553 49.3556 51.6553 51.4524C51.6553 53.5493 53.3551 55.2491 55.452 55.2491Z" stroke="#EACEAA" stroke-linecap="round" stroke-linejoin="round"/>
<path d="M46.9092 55.2489V47.6555C46.9092 45.0345 49.034 42.9097 51.655 42.9097H59.2484C61.8695 42.9097 63.9943 45.0345 63.9943 47.6555V55.2489C63.9943 57.8699 61.8695 59.9948 59.2484 59.9948H51.655C49.034 59.9948 46.9092 57.8699 46.9092 55.2489Z" stroke="#EACEAA"/>
<path d="M60.6721 46.2417L60.6823 46.2305" stroke="#EACEAA" stroke-linecap="round" stroke-linejoin="round"/>
</g>
<defs>
<filter id="filter0_d_802_1794" x="9.72748e-05" y="9.72748e-05" width="111.2" height="111.2" filterUnits="userSpaceOnUse" color-interpolation-filters="sRGB">
<feFlood flood-opacity="0" result="BackgroundImageFix"/>
<feColorMatrix in="SourceAlpha" type="matrix" values="0 0 0 0 0 0 0 0 0 0 0 0 0 0 0 0 0 0 127 0" result="hardAlpha"/>
<feOffset dy="4"/>
<feGaussianBlur stdDeviation="5.8"/>
<feComposite in2="hardAlpha" operator="out"/>
<feColorMatrix type="matrix" values="0 0 0 0 0 0 0 0 0 0 0 0 0 0 0 0 0 0 0.25 0"/>
<feBlend mode="normal" in2="BackgroundImageFix" result="effect1_dropShadow_802_1794"/>
<feBlend mode="normal" in="SourceGraphic" in2="effect1_dropShadow_802_1794" result="shape"/>
</filter>
</defs>
</svg>
