<svg width="112" height="112" viewBox="0 0 112 112" fill="none" xmlns="http://www.w3.org/2000/svg">
<g filter="url(#filter0_d_802_1908)">
<path d="M55.6 7.60017H11.6001V95.6001H99.6V51.5997V7.60017H55.6Z" fill="#1C334E"/>
<path d="M24.173 20.1733H17.8877V19.5858C17.8877 16.4386 20.4388 13.8876 23.5855 13.8876H24.173V20.1733Z" fill="#FBC169"/>
<path d="M12.1876 13.8853H11.6001V7.59996H17.8854V8.1875C17.8854 11.3342 15.3343 13.8853 12.1876 13.8853Z" fill="#86D6C9"/>
<path d="M30.4584 26.4585H24.1731V20.1732H30.4584V26.4585Z" fill="#86D6C9"/>
<path d="M24.7611 13.8853H24.1731V7.59996H30.4584V8.1875C30.4584 11.3342 27.9078 13.8853 24.7611 13.8853Z" fill="#FBC169"/>
<path d="M43.0293 39.0293H30.4573V26.4577H43.0293V39.0293Z" fill="#FBC169"/>
<path d="M39.8866 35.8867H33.5999V29.6005H39.8866V35.8867Z" fill="#1C334E"/>
<path d="M21.0306 35.8867H14.7449V29.6014H21.0306V35.8867Z" fill="#86D6C9"/>
<path d="M12.1876 26.4585H11.6001V20.1732H17.8854V20.7607C17.8854 23.9074 15.3343 26.4585 12.1876 26.4585Z" fill="#FBC169"/>
<path d="M39.8866 17.0303H33.6013V10.7454H39.8866V17.0303Z" fill="#86D6C9"/>
<path d="M39.8866 23.3159H36.7441V20.173H39.8866V23.3159Z" fill="#86D6C9"/>
<path d="M49.3148 32.7422H46.1719V29.6002H49.3148V32.7422Z" fill="#86D6C9"/>
<path d="M44.6008 13.8877C43.7327 13.8877 43.0295 13.1845 43.0295 12.317C43.0295 11.4489 43.7327 10.7458 44.6008 10.7458C45.4683 10.7458 46.172 11.4489 46.172 12.317C46.172 13.1845 45.4683 13.8877 44.6008 13.8877Z" fill="#86D6C9"/>
<path d="M16.3137 42.1719C15.4461 42.1719 14.7429 41.4682 14.7429 40.6002C14.7429 39.7326 15.4461 39.029 16.3137 39.029C17.1817 39.029 17.8853 39.7326 17.8853 40.6002C17.8853 41.4682 17.1817 42.1719 16.3137 42.1719Z" fill="#86D6C9"/>
<path d="M36.7442 45.3149H33.6013V42.1721H36.7442V45.3149Z" fill="#86D6C9"/>
<path d="M33.5997 20.1733H30.4573V17.0305H33.5997V20.1733Z" fill="#86D6C9"/>
<path d="M24.1727 29.6006H21.0298V26.4577H24.1727V29.6006Z" fill="#86D6C9"/>
<path d="M27.316 35.8867H24.1731V32.7438H27.316V35.8867Z" fill="#86D6C9"/>
<path d="M27.3145 45.3149C29.0501 45.3149 30.4574 43.9077 30.4574 42.1721C30.4574 40.4364 29.0501 39.0292 27.3145 39.0292C25.5789 39.0292 24.1716 40.4364 24.1716 42.1721C24.1716 43.9077 25.5789 45.3149 27.3145 45.3149Z" fill="#F3A183"/>
<path d="M46.1707 26.4585C47.9064 26.4585 49.3132 25.0512 49.3132 23.3156C49.3132 21.58 47.9064 20.1727 46.1707 20.1727C44.4351 20.1727 43.0283 21.58 43.0283 23.3156C43.0283 25.0512 44.4351 26.4585 46.1707 26.4585Z" fill="#F3A183"/>
<path d="M87.0266 20.1733H93.3119V19.5858C93.3119 16.4386 90.7613 13.8876 87.6142 13.8876H87.0266V20.1733Z" fill="#FBC169"/>
<path d="M99.0125 13.8853H99.6V7.59996H93.3147V8.1875C93.3147 11.3342 95.8658 13.8853 99.0125 13.8853Z" fill="#86D6C9"/>
<path d="M80.7412 26.4585H87.0265V20.1732H80.7412V26.4585Z" fill="#86D6C9"/>
<path d="M86.439 13.8853H87.0265V7.59996H80.7412V8.1875C80.7412 11.3342 83.2923 13.8853 86.439 13.8853Z" fill="#FBC169"/>
<path d="M68.1707 39.0293H80.7427V26.4577H68.1707V39.0293Z" fill="#FBC169"/>
<path d="M71.3135 35.8867H77.5997V29.6005H71.3135V35.8867Z" fill="#1C334E"/>
<path d="M90.1694 35.8867H96.4547V29.6014H90.1694V35.8867Z" fill="#86D6C9"/>
<path d="M90.1694 51.6001H96.4547V45.3153H90.1694V51.6001Z" fill="#86D6C9"/>
<path d="M99.0125 26.4585H99.6V20.1732H93.3147V20.7607C93.3147 23.9074 95.8658 26.4585 99.0125 26.4585Z" fill="#FBC169"/>
<path d="M71.3135 17.0303H77.5988V10.7454H71.3135V17.0303Z" fill="#86D6C9"/>
<path d="M71.3135 23.3159H74.4559V20.173H71.3135V23.3159Z" fill="#86D6C9"/>
<path d="M61.8855 32.7422H65.0284V29.6002H61.8855V32.7422Z" fill="#86D6C9"/>
<path d="M52.4573 23.3159V32.7422H58.7426V23.3159H55.6002H52.4573Z" fill="#86D6C9"/>
<path d="M55.6002 10.7454H49.3149V17.0303H61.8855V10.7454H55.6002Z" fill="#86D6C9"/>
<path d="M66.5991 13.8877H66.5995C67.4671 13.8877 68.1707 13.1845 68.1707 12.317C68.1707 11.4489 67.4671 10.7458 66.5995 10.7458H66.5991C65.7315 10.7458 65.0283 11.4489 65.0283 12.317C65.0283 13.1845 65.7315 13.8877 66.5991 13.8877Z" fill="#86D6C9"/>
<path d="M94.8859 42.1719C95.754 42.1719 96.4571 41.4682 96.4571 40.6002C96.4571 39.7326 95.754 39.029 94.8859 39.029C94.0183 39.029 93.3147 39.7326 93.3147 40.6002C93.3147 41.4682 94.0183 42.1719 94.8859 42.1719Z" fill="#86D6C9"/>
<path d="M74.4558 45.3149H77.5987V42.1721H74.4558V45.3149Z" fill="#86D6C9"/>
<path d="M77.5999 20.1733H80.7427V17.0305H77.5999V20.1733Z" fill="#86D6C9"/>
<path d="M87.0276 29.6006H90.1705V26.4577H87.0276V29.6006Z" fill="#86D6C9"/>
<path d="M83.884 35.8867H87.0264V32.7438H83.884V35.8867Z" fill="#86D6C9"/>
<path d="M83.8851 45.3149C82.1495 45.3149 80.7427 43.9077 80.7427 42.1721C80.7427 40.4364 82.1495 39.0292 83.8851 39.0292C85.6207 39.0292 87.028 40.4364 87.028 42.1721C87.028 43.9077 85.6207 45.3149 83.8851 45.3149Z" fill="#F3A183"/>
<path d="M65.0286 26.4585C63.293 26.4585 61.8862 25.0512 61.8862 23.3156C61.8862 21.58 63.293 20.1727 65.0286 20.1727C66.7647 20.1727 68.1715 21.58 68.1715 23.3156C68.1715 25.0512 66.7647 26.4585 65.0286 26.4585Z" fill="#F3A183"/>
<path d="M24.173 83.0268H17.8877V83.6148C17.8877 86.7609 20.4388 89.312 23.5855 89.312H24.173V83.0268Z" fill="#FBC169"/>
<path d="M12.1876 89.3149H11.6001V95.6001H17.8854V95.0121C17.8854 91.8659 15.3343 89.3149 12.1876 89.3149Z" fill="#86D6C9"/>
<path d="M30.4584 76.741H24.1731V83.0264H30.4584V76.741Z" fill="#86D6C9"/>
<path d="M24.7606 89.3149H24.1731V95.6001H30.4584V95.0121C30.4584 91.8659 27.9078 89.3149 24.7606 89.3149Z" fill="#FBC169"/>
<path d="M43.0293 64.1706H30.4573V76.7427H43.0293V64.1706Z" fill="#FBC169"/>
<path d="M39.8866 67.3129H33.5999V73.5996H39.8866V67.3129Z" fill="#1C334E"/>
<path d="M21.0306 67.3133H14.7449V73.5991H21.0306V67.3133Z" fill="#86D6C9"/>
<path d="M12.1876 76.741H11.6001V83.0264H17.8854V82.4387C17.8854 79.292 15.3343 76.741 12.1876 76.741Z" fill="#FBC169"/>
<path d="M39.8866 86.1697H33.6013V92.4551H39.8866V86.1697Z" fill="#86D6C9"/>
<path d="M39.8866 79.8839H36.7441V83.0264H39.8866V79.8839Z" fill="#86D6C9"/>
<path d="M49.3148 70.4572H46.1719V73.5996H49.3148V70.4572Z" fill="#86D6C9"/>
<path d="M44.6008 89.3121C43.7327 89.3121 43.0295 90.0158 43.0295 90.8839C43.0295 91.7519 43.7327 92.4551 44.6008 92.4551C45.4683 92.4551 46.172 91.7519 46.172 90.8839C46.172 90.0158 45.4683 89.3121 44.6008 89.3121Z" fill="#86D6C9"/>
<path d="M16.3137 61.0285C15.4461 61.0285 14.7429 61.7316 14.7429 62.5992V62.5997C14.7429 63.4673 15.4461 64.1709 16.3137 64.1709C17.1817 64.1709 17.8853 63.4673 17.8853 62.5997C17.8853 61.7316 17.1817 61.0285 16.3137 61.0285Z" fill="#86D6C9"/>
<path d="M36.7442 57.8854H33.6013V61.0283H36.7442V57.8854Z" fill="#86D6C9"/>
<path d="M33.5997 83.0266H30.4573V86.1694H33.5997V83.0266Z" fill="#86D6C9"/>
<path d="M24.1727 73.5998H21.0298V76.7427H24.1727V73.5998Z" fill="#86D6C9"/>
<path d="M27.316 67.3137H24.1731V70.4565H27.316V67.3137Z" fill="#86D6C9"/>
<path d="M27.3145 57.8856C29.0501 57.8856 30.4574 59.2929 30.4574 61.0285C30.4574 62.7641 29.0501 64.1709 27.3145 64.1709C25.5789 64.1709 24.1716 62.7641 24.1716 61.0285C24.1716 59.2929 25.5789 57.8856 27.3145 57.8856Z" fill="#F3A183"/>
<path d="M46.1707 76.7415C47.9064 76.7415 49.3132 78.1487 49.3132 79.8843C49.3132 81.6201 47.9064 83.0264 46.1707 83.0264C44.4351 83.0264 43.0283 81.6201 43.0283 79.8843C43.0283 78.1487 44.4351 76.7415 46.1707 76.7415Z" fill="#F3A183"/>
<path d="M87.0266 83.0268H93.3119V83.6148C93.3119 86.7609 90.7613 89.312 87.6142 89.312H87.0266V83.0268Z" fill="#FBC169"/>
<path d="M99.0125 89.3149H99.6V95.6001H93.3147V95.0121C93.3147 91.8659 95.8658 89.3149 99.0125 89.3149Z" fill="#86D6C9"/>
<path d="M80.7412 76.741H87.0265V83.0264H80.7412V76.741Z" fill="#86D6C9"/>
<path d="M86.439 89.3149H87.0265V95.6001H80.7412V95.0121C80.7412 91.8659 83.2923 89.3149 86.439 89.3149Z" fill="#FBC169"/>
<path d="M68.1707 64.1706H80.7427V76.7427H68.1707V64.1706Z" fill="#FBC169"/>
<path d="M55.6003 39.0288H43.0283V64.1719H68.171V51.6008V51.5994V39.0288H55.6003Z" fill="#86D6C9"/>
<path d="M71.3135 67.3129H77.5997V73.5996H71.3135V67.3129Z" fill="#1C334E"/>
<path d="M90.1694 67.3133H96.4547V73.5991H90.1694V67.3133Z" fill="#86D6C9"/>
<path d="M90.1694 51.6H96.4547V57.8857H90.1694V51.6Z" fill="#86D6C9"/>
<path d="M99.0125 76.741H99.6V83.0264H93.3147V82.4387C93.3147 79.292 95.8658 76.741 99.0125 76.741Z" fill="#FBC169"/>
<path d="M71.3135 86.1697H77.5988V92.4551H71.3135V86.1697Z" fill="#86D6C9"/>
<path d="M14.7449 51.6V57.8857H21.0306V45.3151H14.7449V51.6Z" fill="#86D6C9"/>
<path d="M27.3145 51.5998V54.7427H36.7441V48.4574H27.3145V51.5998Z" fill="#86D6C9"/>
<path d="M55.6002 86.1697H49.3149V92.4551H61.8855V86.1697H55.6002Z" fill="#86D6C9"/>
<path d="M71.3135 79.8839H74.4559V83.0264H71.3135V79.8839Z" fill="#86D6C9"/>
<path d="M61.8855 70.4572H65.0284V73.5996H61.8855V70.4572Z" fill="#86D6C9"/>
<path d="M55.6002 70.4575H52.4573V79.8843H58.7426V70.4575H55.6002Z" fill="#86D6C9"/>
<path d="M66.5991 89.3121H66.5995C67.4671 89.3121 68.1707 90.0158 68.1707 90.8839C68.1707 91.7519 67.4671 92.4551 66.5995 92.4551H66.5991C65.7315 92.4551 65.0283 91.7519 65.0283 90.8839C65.0283 90.0158 65.7315 89.3121 66.5991 89.3121Z" fill="#86D6C9"/>
<path d="M94.8859 61.0285C95.754 61.0285 96.4571 61.7316 96.4571 62.5992V62.5997C96.4571 63.4673 95.754 64.1709 94.8859 64.1709C94.0183 64.1709 93.3147 63.4673 93.3147 62.5997V62.5992C93.3147 61.7316 94.0183 61.0285 94.8859 61.0285Z" fill="#86D6C9"/>
<path d="M74.4558 57.8854H77.5987V61.0283H74.4558V57.8854Z" fill="#86D6C9"/>
<path d="M74.4558 48.4574V54.7427H83.8849V48.4574H74.4558Z" fill="#86D6C9"/>
<path d="M77.5999 83.0266H80.7427V86.1694H77.5999V83.0266Z" fill="#86D6C9"/>
<path d="M87.0276 73.5998H90.1705V76.7427H87.0276V73.5998Z" fill="#86D6C9"/>
<path d="M83.884 67.3137H87.0264V70.4565H83.884V67.3137Z" fill="#86D6C9"/>
<path d="M83.8851 57.8856C82.1495 57.8856 80.7427 59.2929 80.7427 61.0285C80.7427 62.7641 82.1495 64.1709 83.8851 64.1709C85.6207 64.1709 87.028 62.7641 87.028 61.0285C87.028 59.2929 85.6207 57.8856 83.8851 57.8856Z" fill="#F3A183"/>
<path d="M65.0286 76.7415C63.293 76.7415 61.8862 78.1487 61.8862 79.8843C61.8862 81.6201 63.293 83.0264 65.0286 83.0264C66.7647 83.0264 68.1715 81.6201 68.1715 79.8843C68.1715 78.1487 66.7647 76.7415 65.0286 76.7415Z" fill="#F3A183"/>
<path d="M63.9943 47.6555V55.2489C63.9943 57.8699 61.8694 59.9947 59.2484 59.9947H51.655C49.034 59.9947 46.9092 57.8699 46.9092 55.2489V47.6555C46.9092 45.0345 49.034 42.9097 51.655 42.9097H59.2484C61.8694 42.9097 63.9943 45.0345 63.9943 47.6555Z" stroke="white" stroke-width="2" stroke-linecap="round" stroke-linejoin="round"/>
<path d="M54.5024 59.9945C54.5024 57.147 54.5024 54.2995 54.5024 51.452C54.5024 49.3756 54.977 47.6553 58.2991 47.6553" stroke="white" stroke-width="2" stroke-linecap="round" stroke-linejoin="round"/>
<path d="M52.6042 52.4014H54.5026H58.2993" stroke="white" stroke-width="2" stroke-linecap="round" stroke-linejoin="round"/>
</g>
<defs>
<filter id="filter0_d_802_1908" x="9.72748e-05" y="9.72748e-05" width="111.2" height="111.2" filterUnits="userSpaceOnUse" color-interpolation-filters="sRGB">
<feFlood flood-opacity="0" result="BackgroundImageFix"/>
<feColorMatrix in="SourceAlpha" type="matrix" values="0 0 0 0 0 0 0 0 0 0 0 0 0 0 0 0 0 0 127 0" result="hardAlpha"/>
<feOffset dy="4"/>
<feGaussianBlur stdDeviation="5.8"/>
<feComposite in2="hardAlpha" operator="out"/>
<feColorMatrix type="matrix" values="0 0 0 0 0 0 0 0 0 0 0 0 0 0 0 0 0 0 0.25 0"/>
<feBlend mode="normal" in2="BackgroundImageFix" result="effect1_dropShadow_802_1908"/>
<feBlend mode="normal" in="SourceGraphic" in2="effect1_dropShadow_802_1908" result="shape"/>
</filter>
</defs>
</svg>
