<svg width="641" height="753" viewBox="0 0 641 753" fill="none" xmlns="http://www.w3.org/2000/svg">
<g opacity="0.7" clip-path="url(#clip0_802_2253)" filter="url(#filter0_d_802_2253)">
<path d="M81.8306 243.995L561.068 386.609" stroke="white" stroke-width="1.42" stroke-miterlimit="10"/>
<path d="M108.875 183.683L534.052 446.961" stroke="white" stroke-width="1.42" stroke-miterlimit="10"/>
<path d="M150.766 132.581L492.174 498.119" stroke="white" stroke-width="1.42" stroke-miterlimit="10"/>
<path d="M204.579 94.2332L438.361 536.508" stroke="white" stroke-width="1.42" stroke-miterlimit="10"/>
<path d="M266.537 71.3347L376.375 559.461" stroke="white" stroke-width="1.42" stroke-miterlimit="10"/>
<path d="M332.341 65.4932L310.544 565.344" stroke="white" stroke-width="1.42" stroke-miterlimit="10"/>
<path d="M397.376 77.0935L245.482 553.785" stroke="white" stroke-width="1.42" stroke-miterlimit="10"/>
<path d="M457.095 105.339L185.708 525.553" stroke="white" stroke-width="1.42" stroke-miterlimit="10"/>
<path d="M507.324 148.25L135.424 482.656" stroke="white" stroke-width="1.42" stroke-miterlimit="10"/>
<path d="M544.587 202.843L98.1201 428.063" stroke="white" stroke-width="1.42" stroke-miterlimit="10"/>
<path d="M566.246 265.285L76.4053 365.593" stroke="white" stroke-width="1.42" stroke-miterlimit="10"/>
<path d="M570.793 331.232L71.8179 299.619" stroke="white" stroke-width="1.42" stroke-miterlimit="10"/>
<path d="M321.367 567.419C459.728 567.419 571.891 455.176 571.891 316.717C571.891 178.258 459.728 66.0154 321.367 66.0154C183.006 66.0154 70.8425 178.258 70.8425 316.717C70.8425 455.176 183.006 567.419 321.367 567.419Z" stroke="white" stroke-width="2.83" stroke-miterlimit="10"/>
<path d="M323.427 613.904C487.443 613.904 620.403 480.849 620.403 316.717C620.403 152.586 487.443 19.531 323.427 19.531C159.412 19.531 26.4514 152.586 26.4514 316.717C26.4514 480.849 159.412 613.904 323.427 613.904Z" stroke="white" stroke-width="2.83" stroke-miterlimit="10"/>
<path d="M388.558 559.255L380.935 605.698C380.812 606.427 379.85 606.619 379.466 605.987L355.018 565.935" stroke="white" stroke-width="1.42" stroke-miterlimit="10"/>
<path d="M349.922 566.691L335.143 611.361C334.91 612.062 333.934 612.103 333.646 611.416L315.763 568.024" stroke="white" stroke-width="1.42" stroke-miterlimit="10"/>
<path d="M310.585 567.997L288.994 609.808C288.651 610.468 287.675 610.344 287.511 609.629L276.633 563.983" stroke="white" stroke-width="1.42" stroke-miterlimit="10"/>
<path d="M271.537 563.131L243.682 601.039C243.243 601.63 242.295 601.369 242.24 600.627L238.628 553.84" stroke="white" stroke-width="1.42" stroke-miterlimit="10"/>
<path d="M233.738 552.218L200.294 585.301C199.772 585.824 198.879 585.411 198.934 584.669L202.684 537.882" stroke="white" stroke-width="1.42" stroke-miterlimit="10"/>
<path d="M198.096 535.518L159.9 562.966C159.295 563.392 158.485 562.856 158.664 562.128L169.679 516.509" stroke="white" stroke-width="1.42" stroke-miterlimit="10"/>
<path d="M165.517 513.431L123.502 534.556C122.843 534.886 122.129 534.226 122.403 533.539L140.424 490.202" stroke="white" stroke-width="1.42" stroke-miterlimit="10"/>
<path d="M136.784 486.532L91.9805 500.827C91.28 501.047 90.6756 500.277 91.0602 499.645L115.632 459.662" stroke="white" stroke-width="1.42" stroke-miterlimit="10"/>
<path d="M112.61 455.456L66.1178 462.548C65.3899 462.658 64.9092 461.806 65.3899 461.242L95.9088 425.602" stroke="white" stroke-width="1.42" stroke-miterlimit="10"/>
<path d="M93.6013 420.984L46.573 420.723C45.8313 420.723 45.5017 419.802 46.0648 419.321L81.7755 388.89" stroke="white" stroke-width="1.42" stroke-miterlimit="10"/>
<path d="M80.196 383.956L33.7858 376.328C33.0579 376.204 32.8656 375.242 33.4974 374.857L73.5209 350.392" stroke="white" stroke-width="1.42" stroke-miterlimit="10"/>
<path d="M72.7654 345.292L28.127 330.503C27.4266 330.27 27.3854 329.294 28.0721 329.005L71.4332 311.11" stroke="white" stroke-width="1.42" stroke-miterlimit="10"/>
<path d="M71.4606 305.942L29.6791 284.335C29.0198 283.991 29.1434 283.016 29.8576 282.851L75.4712 271.965" stroke="white" stroke-width="1.42" stroke-miterlimit="10"/>
<path d="M76.3228 266.866L38.4419 238.992C37.8513 238.552 38.1123 237.603 38.854 237.548L85.6076 233.934" stroke="white" stroke-width="1.42" stroke-miterlimit="10"/>
<path d="M87.2282 229.027L54.1683 195.558C53.6464 195.036 54.0585 194.143 54.8001 194.198L101.554 197.95" stroke="white" stroke-width="1.42" stroke-miterlimit="10"/>
<path d="M103.916 193.373L76.4876 155.149C76.0618 154.545 76.5974 153.734 77.3254 153.912L122.911 164.936" stroke="white" stroke-width="1.42" stroke-miterlimit="10"/>
<path d="M125.988 160.757L104.878 118.712C104.548 118.053 105.207 117.338 105.894 117.613L149.2 135.646" stroke="white" stroke-width="1.42" stroke-miterlimit="10"/>
<path d="M152.867 132.003L138.583 87.1684C138.363 86.4675 139.132 85.8627 139.764 86.2476L179.719 110.837" stroke="white" stroke-width="1.42" stroke-miterlimit="10"/>
<path d="M183.922 107.813L176.835 61.2872C176.725 60.5587 177.576 60.0777 178.139 60.5587L213.754 91.0993" stroke="white" stroke-width="1.42" stroke-miterlimit="10"/>
<path d="M218.369 88.7902L218.63 41.7286C218.63 40.9864 219.55 40.6565 220.031 41.2201L250.44 76.9561" stroke="white" stroke-width="1.42" stroke-miterlimit="10"/>
<path d="M255.371 75.3893L262.994 28.9462C263.117 28.2178 264.079 28.0253 264.463 28.6576L288.911 68.7094" stroke="white" stroke-width="1.42" stroke-miterlimit="10"/>
<path d="M294.007 67.9397L308.786 23.2696C309.019 22.5687 309.995 22.5274 310.283 23.2147L328.166 66.6064" stroke="white" stroke-width="1.42" stroke-miterlimit="10"/>
<path d="M333.33 66.6338L354.921 24.8227C355.265 24.1629 356.24 24.2866 356.405 25.0014L367.283 70.6473" stroke="white" stroke-width="1.42" stroke-miterlimit="10"/>
<path d="M372.378 71.4995L400.233 33.5918C400.672 33.0008 401.62 33.2619 401.675 34.0042L405.287 80.7909" stroke="white" stroke-width="1.42" stroke-miterlimit="10"/>
<path d="M410.19 82.4128L443.635 49.3295C444.157 48.8072 445.05 49.2196 444.995 49.9618L441.245 96.7485" stroke="white" stroke-width="1.42" stroke-miterlimit="10"/>
<path d="M445.819 99.1261L484.016 71.6781C484.62 71.252 485.43 71.788 485.252 72.5165L474.236 118.135" stroke="white" stroke-width="1.42" stroke-miterlimit="10"/>
<path d="M478.412 121.2L520.427 100.075C521.086 99.7448 521.8 100.405 521.526 101.092L503.506 144.429" stroke="white" stroke-width="1.42" stroke-miterlimit="10"/>
<path d="M507.145 148.098L551.949 133.804C552.649 133.584 553.253 134.354 552.869 134.986L528.297 174.969" stroke="white" stroke-width="1.42" stroke-miterlimit="10"/>
<path d="M531.319 179.175L577.811 172.083C578.539 171.973 579.02 172.825 578.539 173.388L548.02 209.028" stroke="white" stroke-width="1.42" stroke-miterlimit="10"/>
<path d="M550.328 213.646L597.356 213.908C598.098 213.908 598.427 214.829 597.864 215.31L562.153 245.74" stroke="white" stroke-width="1.42" stroke-miterlimit="10"/>
<path d="M563.719 250.675L610.129 258.303C610.857 258.427 611.05 259.389 610.418 259.773L570.394 284.239" stroke="white" stroke-width="1.42" stroke-miterlimit="10"/>
<path d="M571.164 289.338L615.802 304.127C616.502 304.361 616.544 305.337 615.857 305.626L572.496 323.521" stroke="white" stroke-width="1.42" stroke-miterlimit="10"/>
<path d="M572.468 328.703L614.25 350.309C614.909 350.653 614.786 351.629 614.071 351.794L568.458 362.679" stroke="white" stroke-width="1.42" stroke-miterlimit="10"/>
<path d="M567.606 367.779L605.487 395.653C606.078 396.093 605.817 397.041 605.075 397.096L558.321 400.711" stroke="white" stroke-width="1.42" stroke-miterlimit="10"/>
<path d="M556.701 405.604L589.761 439.072C590.283 439.594 589.87 440.488 589.129 440.433L542.375 436.681" stroke="white" stroke-width="1.42" stroke-miterlimit="10"/>
<path d="M539.999 441.271L567.428 479.495C567.853 480.1 567.318 480.911 566.59 480.732L521.004 469.709" stroke="white" stroke-width="1.42" stroke-miterlimit="10"/>
<path d="M517.941 473.874L539.051 515.918C539.381 516.578 538.722 517.293 538.035 517.018L494.729 498.985" stroke="white" stroke-width="1.42" stroke-miterlimit="10"/>
<path d="M491.062 502.627L505.346 547.462C505.566 548.163 504.797 548.768 504.165 548.383L464.21 523.794" stroke="white" stroke-width="1.42" stroke-miterlimit="10"/>
<path d="M460.007 526.818L467.094 573.343C467.204 574.072 466.353 574.553 465.789 574.072L430.175 543.531" stroke="white" stroke-width="1.42" stroke-miterlimit="10"/>
<path d="M425.56 545.84L425.299 592.902C425.299 593.644 424.379 593.974 423.898 593.41L393.489 557.674" stroke="white" stroke-width="1.42" stroke-miterlimit="10"/>
<path d="M268.253 629.163L251.967 625.992C248.232 625.265 245.789 621.638 246.515 617.901L249.152 604.342L278.974 610.149L276.338 623.708C275.611 627.445 271.988 629.89 268.253 629.163Z" fill="white"/>
<path d="M182.369 601.773L167.635 594.139C164.256 592.389 162.933 588.221 164.682 584.84L171.028 572.573L198.008 586.55L191.662 598.817C189.913 602.198 185.748 603.523 182.369 601.773Z" fill="white"/>
<path d="M107.678 551.26L95.6891 539.783C92.9399 537.151 92.843 532.779 95.4729 530.028L105.015 520.046L126.969 541.063L117.427 551.044C114.797 553.795 110.428 553.892 107.678 551.26Z" fill="white"/>
<path d="M50.3012 481.806L42.0305 467.413C40.1339 464.112 41.2724 459.89 44.5706 457.992L56.5369 451.106L71.6817 477.462L59.7154 484.348C56.4173 486.246 52.1978 485.107 50.3012 481.806Z" fill="white"/>
<path d="M14.7623 398.926L10.8778 382.784C9.98705 379.083 12.268 375.352 15.9668 374.461L29.3867 371.226L36.4998 400.785L23.0799 404.019C19.3811 404.91 15.6531 402.627 14.7623 398.926Z" fill="white"/>
<path d="M4.00851 309.426L4.82769 292.843C5.01553 289.04 8.2547 286.104 12.0546 286.292L25.8414 286.974L24.3413 317.34L10.5546 316.658C6.75468 316.47 3.82067 313.229 4.00851 309.426Z" fill="white"/>
<path d="M18.8883 220.481L24.3421 204.8C25.5926 201.205 29.5271 199.3 33.1202 200.552L46.1568 205.092L36.1703 233.806L23.1337 229.266C19.5406 228.014 17.6378 224.077 18.8883 220.481Z" fill="white"/>
<path d="M58.1975 139.34L67.8442 125.831C70.0562 122.734 74.3673 122.015 77.4627 124.229L88.6934 132.26L71.0292 156.997L59.7985 148.965C56.7031 146.752 55.9855 142.437 58.1975 139.34Z" fill="white"/>
<path d="M118.759 72.5814L131.819 62.341C134.814 59.9928 139.153 60.5198 141.499 63.5166L150.013 74.3898L126.098 93.1413L117.584 82.2681C115.238 79.2712 115.764 74.9296 118.759 72.5814Z" fill="white"/>
<path d="M195.666 25.5896L211.08 19.4452C214.614 18.0362 218.629 19.7647 220.037 23.3017L225.145 36.1343L196.92 47.3857L191.812 34.553C190.404 31.016 192.131 26.9986 195.666 25.5896Z" fill="white"/>
<path d="M282.694 2.18213L299.213 0.631141C303.001 0.275492 306.367 3.06563 306.722 6.85624L308.012 20.6092L277.763 23.4492L276.473 9.69629C276.118 5.90568 278.906 2.53778 282.694 2.18213Z" fill="white"/>
<path d="M372.776 4.28331L389.063 7.45425C392.797 8.18136 395.24 11.8076 394.514 15.5448L391.878 29.1039L362.055 23.2975L364.692 9.73838C365.418 6.0012 369.042 3.5562 372.776 4.28331Z" fill="white"/>
<path d="M458.62 31.6589L473.355 39.2921C476.733 41.0424 478.057 45.2105 476.308 48.5916L469.962 60.8586L442.981 46.8813L449.327 34.6142C451.077 31.2332 455.242 29.9086 458.62 31.6589Z" fill="white"/>
<path d="M533.301 82.1267L545.29 93.6041C548.039 96.2359 548.136 100.608 545.506 103.359L535.964 113.341L514.01 92.3246L523.552 82.343C526.182 79.5919 530.551 79.4949 533.301 82.1267Z" fill="white"/>
<path d="M590.678 151.647L598.949 166.041C600.846 169.341 599.707 173.564 596.409 175.462L584.443 182.347L569.298 155.991L581.264 149.105C584.562 147.207 588.782 148.347 590.678 151.647Z" fill="white"/>
<path d="M626.23 234.515L630.115 250.657C631.006 254.358 628.725 258.089 625.026 258.98L611.606 262.214L604.493 232.656L617.913 229.422C621.612 228.531 625.339 230.813 626.23 234.515Z" fill="white"/>
<path d="M636.934 324.012L636.115 340.595C635.927 344.398 632.688 347.334 628.888 347.146L615.101 346.464L616.601 316.098L630.388 316.78C634.188 316.968 637.122 320.209 636.934 324.012Z" fill="white"/>
<path d="M622.089 412.966L616.635 428.647C615.385 432.243 611.45 434.147 607.857 432.895L594.82 428.355L604.807 399.641L617.843 404.182C621.437 405.433 623.339 409.37 622.089 412.966Z" fill="white"/>
<path d="M582.811 494.14L573.164 507.649C570.952 510.746 566.641 511.464 563.546 509.251L552.315 501.219L569.979 476.483L581.21 484.514C584.305 486.728 585.023 491.042 582.811 494.14Z" fill="white"/>
<path d="M522.239 560.824L509.179 571.065C506.184 573.413 501.845 572.886 499.499 569.889L490.985 559.016L514.9 540.264L523.414 551.138C525.76 554.135 525.234 558.476 522.239 560.824Z" fill="white"/>
<path d="M445.318 607.859L429.904 614.004C426.37 615.413 422.355 613.684 420.947 610.147L415.839 597.315L444.063 586.063L449.172 598.896C450.58 602.433 448.852 606.45 445.318 607.859Z" fill="white"/>
<path d="M358.274 631.277L341.755 632.828C337.967 633.183 334.602 630.393 334.246 626.603L332.957 612.85L363.205 610.01L364.495 623.763C364.85 627.553 362.062 630.921 358.274 631.277Z" fill="white"/>
<path d="M315.942 311.563L163.718 727.874C160.683 736.19 166.822 744.986 175.667 744.986C181.134 744.986 185.982 741.495 187.727 736.313L314.294 360.673C316.477 354.199 325.721 354.488 327.493 361.085L428.156 734.54C429.818 740.712 435.408 745 441.795 745H444.308C453.854 745 460.653 735.722 457.782 726.61L327.163 311.824C326.38 309.35 324.087 307.66 321.491 307.66C318.991 307.66 316.766 309.213 315.901 311.563H315.942Z" fill="white"/>
</g>
<defs>
<filter id="filter0_d_802_2253" x="-0.00512695" y="0" width="641" height="753" filterUnits="userSpaceOnUse" color-interpolation-filters="sRGB">
<feFlood flood-opacity="0" result="BackgroundImageFix"/>
<feColorMatrix in="SourceAlpha" type="matrix" values="0 0 0 0 0 0 0 0 0 0 0 0 0 0 0 0 0 0 127 0" result="hardAlpha"/>
<feOffset dy="4"/>
<feGaussianBlur stdDeviation="2"/>
<feComposite in2="hardAlpha" operator="out"/>
<feColorMatrix type="matrix" values="0 0 0 0 0 0 0 0 0 0 0 0 0 0 0 0 0 0 0.25 0"/>
<feBlend mode="normal" in2="BackgroundImageFix" result="effect1_dropShadow_802_2253"/>
<feBlend mode="normal" in="SourceGraphic" in2="effect1_dropShadow_802_2253" result="shape"/>
</filter>
<clipPath id="clip0_802_2253">
<rect width="633" height="745" fill="white" transform="translate(3.99487)"/>
</clipPath>
</defs>
</svg>
